<svg width="36" height="28" viewBox="0 0 36 28" fill="none" xmlns="http://www.w3.org/2000/svg">
<path d="M34.25 0.25H1.75C1.05859 0.25 0.5 0.808594 0.5 1.5V26.5C0.5 27.1914 1.05859 27.75 1.75 27.75H34.25C34.9414 27.75 35.5 27.1914 35.5 26.5V1.5C35.5 0.808594 34.9414 0.25 34.25 0.25ZM31.0938 4.50391L18.7695 14.0938C18.4648 14.332 18.0391 14.332 17.7344 14.0938L5.40625 4.50391C5.35978 4.46804 5.32569 4.41853 5.30877 4.36232C5.29185 4.30611 5.29294 4.24602 5.31189 4.19046C5.33084 4.1349 5.3667 4.08666 5.41444 4.0525C5.46219 4.01835 5.51942 3.99999 5.57812 4H30.9219C30.9806 3.99999 31.0378 4.01835 31.0856 4.0525C31.1333 4.08666 31.1692 4.1349 31.1881 4.19046C31.2071 4.24602 31.2082 4.30611 31.1912 4.36232C31.1743 4.41853 31.1402 4.46804 31.0938 4.50391Z" fill="#0F1960"/>
</svg>
