<svg width="40" height="40" viewBox="0 0 40 40" fill="none" xmlns="http://www.w3.org/2000/svg">
<path d="M39.4441 33.2616L33.8045 38.856C32.972 39.7097 31.8686 39.9989 30.794 40.0002C26.0416 39.8579 21.5495 37.5234 17.8612 35.1264C11.8072 30.7221 6.2523 25.2609 2.76596 18.6613C1.42883 15.8939 -0.140108 12.3628 0.00979244 9.27387C0.0231591 8.11187 0.336293 6.97144 1.15466 6.22244L6.7942 0.585739C7.96527 -0.410361 9.09777 -0.0659606 9.84717 1.09431L14.3842 9.69771C14.8617 10.7169 14.5878 11.809 13.8753 12.5373L11.7976 14.614C11.6693 14.7897 11.5877 14.9897 11.5856 15.2073C12.3823 18.2914 14.796 21.134 16.9283 23.0902C19.0605 25.0465 21.3525 27.6968 24.3276 28.3242C24.6953 28.4268 25.1457 28.4628 25.4088 28.2183L27.8258 25.7602C28.659 25.1287 29.862 24.82 30.7515 25.3364H30.7939L38.9776 30.1678C40.179 30.9209 40.3042 32.3762 39.4441 33.2616Z" fill="#0F1960"/>
</svg>
